# MagicaVoxel @ Ephtracy

# group
o 

# material
mtllib green.mtl
usemtl palette

# normals
vn -1 0 0
vn 1 0 0
vn 0 0 1
vn 0 0 -1
vn 0 -1 0
vn 0 1 0

# texcoords
vt 0.220703 0.5
vt 0.224609 0.5
vt 0.779297 0.5
vt 0.927734 0.5
vt 0.974609 0.5
vt 0.982422 0.5
vt 0.986328 0.5
vt 0.990234 0.5
vt 0.994141 0.5

# verts
v -0.7 0 0.7
v -0.7 0 0.3
v -0.7 0 -0.4
v -0.7 0 -0.8
v -0.7 0.1 0.8
v -0.7 0.1 0.7
v -0.7 0.1 0.3
v -0.7 0.1 0.2
v -0.7 0.1 -0.3
v -0.7 0.1 -0.4
v -0.7 0.1 -0.8
v -0.7 0.1 -0.9
v -0.7 0.2 0.6
v -0.7 0.2 0.4
v -0.7 0.2 -0.5
v -0.7 0.2 -0.7
v -0.7 0.3 1
v -0.7 0.3 0.9
v -0.7 0.3 0.8
v -0.7 0.3 0.2
v -0.7 0.3 0.1
v -0.7 0.3 -0.2
v -0.7 0.3 -0.3
v -0.7 0.3 -0.9
v -0.7 0.3 -1
v -0.7 0.3 -1.1
v -0.7 0.4 0.6
v -0.7 0.4 0.4
v -0.7 0.4 -0.5
v -0.7 0.4 -0.7
v -0.7 0.5 1
v -0.7 0.5 0.9
v -0.7 0.5 0.8
v -0.7 0.5 0.7
v -0.7 0.5 0.3
v -0.7 0.5 0.2
v -0.7 0.5 -0.3
v -0.7 0.5 -0.4
v -0.7 0.5 -0.8
v -0.7 0.5 -0.9
v -0.7 0.6 0.9
v -0.7 0.6 0.8
v -0.7 0.6 0.7
v -0.7 0.6 0.3
v -0.7 0.6 0.2
v -0.7 0.6 0.1
v -0.7 0.6 -0.2
v -0.7 0.6 -0.3
v -0.7 0.6 -0.4
v -0.7 0.6 -0.8
v -0.7 0.6 -0.9
v -0.7 0.6 -1
v -0.7 0.7 1
v -0.7 0.7 0.9
v -0.7 0.7 0.8
v -0.7 0.7 0.2
v -0.7 0.7 -0.3
v -0.7 0.7 -0.9
v -0.7 0.7 -1
v -0.7 0.7 -1.1
v -0.7 0.9 -1
v -0.7 0.9 -1.1
v -0.7 1 1
v -0.7 1 0.9
v -0.7 1 0.7
v -0.7 1 -0.1
v -0.7 1 -0.2
v -0.7 1 -0.6
v -0.7 1.2 0.9
v -0.7 1.2 0.8
v -0.7 1.2 0.7
v -0.7 1.2 0.6
v -0.7 1.3 0.8
v -0.7 1.3 0.7
v -0.7 1.4 0.6
v -0.7 1.4 0.5
v -0.7 1.5 0.7
v -0.7 1.5 0.6
v -0.7 1.5 -1
v -0.7 1.5 -1.1
v -0.7 1.6 0.5
v -0.7 1.6 0.4
v -0.7 1.6 -0.5
v -0.7 1.6 -0.6
v -0.7 1.7 0.6
v -0.7 1.7 0.5
v -0.7 1.7 0.4
v -0.7 1.7 -0.1
v -0.7 1.7 -0.2
v -0.7 1.7 -0.5
v -0.7 1.7 -0.9
v -0.7 1.7 -1
v -0.7 1.8 0.5
v -0.7 1.8 -0.9
v 0.5 0 0.7
v 0.5 0 0.3
v 0.5 0 -0.4
v 0.5 0 -0.8
v 0.5 0.1 0.8
v 0.5 0.1 0.7
v 0.5 0.1 0.3
v 0.5 0.1 0.2
v 0.5 0.1 -0.3
v 0.5 0.1 -0.4
v 0.5 0.1 -0.8
v 0.5 0.1 -0.9
v 0.5 0.2 0.6
v 0.5 0.2 0.4
v 0.5 0.2 -0.5
v 0.5 0.2 -0.7
v 0.5 0.3 0.8
v 0.5 0.3 0.6
v 0.5 0.3 0.4
v 0.5 0.3 0.2
v 0.5 0.3 -0.3
v 0.5 0.3 -0.5
v 0.5 0.3 -0.7
v 0.5 0.3 -0.9
v -0.5 0 0.7
v -0.5 0 0.3
v -0.5 0 -0.4
v -0.5 0 -0.8
v -0.5 0.1 0.8
v -0.5 0.1 0.7
v -0.5 0.1 0.3
v -0.5 0.1 0.2
v -0.5 0.1 -0.3
v -0.5 0.1 -0.4
v -0.5 0.1 -0.8
v -0.5 0.1 -0.9
v -0.5 0.2 0.6
v -0.5 0.2 0.4
v -0.5 0.2 -0.5
v -0.5 0.2 -0.7
v -0.5 0.3 0.8
v -0.5 0.3 0.6
v -0.5 0.3 0.4
v -0.5 0.3 0.2
v -0.5 0.3 -0.3
v -0.5 0.3 -0.5
v -0.5 0.3 -0.7
v -0.5 0.3 -0.9
v 0.7 0 0.7
v 0.7 0 0.3
v 0.7 0 -0.4
v 0.7 0 -0.8
v 0.7 0.1 0.8
v 0.7 0.1 0.7
v 0.7 0.1 0.3
v 0.7 0.1 0.2
v 0.7 0.1 -0.3
v 0.7 0.1 -0.4
v 0.7 0.1 -0.8
v 0.7 0.1 -0.9
v 0.7 0.2 0.6
v 0.7 0.2 0.4
v 0.7 0.2 -0.5
v 0.7 0.2 -0.7
v 0.7 0.3 1
v 0.7 0.3 0.9
v 0.7 0.3 0.8
v 0.7 0.3 0.2
v 0.7 0.3 0.1
v 0.7 0.3 -0.2
v 0.7 0.3 -0.3
v 0.7 0.3 -0.9
v 0.7 0.3 -1
v 0.7 0.3 -1.1
v 0.7 0.4 0.6
v 0.7 0.4 0.4
v 0.7 0.4 -0.5
v 0.7 0.4 -0.7
v 0.7 0.5 1
v 0.7 0.5 0.9
v 0.7 0.5 0.8
v 0.7 0.5 0.7
v 0.7 0.5 0.3
v 0.7 0.5 0.2
v 0.7 0.5 -0.3
v 0.7 0.5 -0.4
v 0.7 0.5 -0.8
v 0.7 0.5 -0.9
v 0.7 0.6 0.9
v 0.7 0.6 0.8
v 0.7 0.6 0.7
v 0.7 0.6 0.3
v 0.7 0.6 0.2
v 0.7 0.6 0.1
v 0.7 0.6 -0.2
v 0.7 0.6 -0.3
v 0.7 0.6 -0.4
v 0.7 0.6 -0.8
v 0.7 0.6 -0.9
v 0.7 0.6 -1
v 0.7 0.7 1
v 0.7 0.7 0.9
v 0.7 0.7 0.8
v 0.7 0.7 0.2
v 0.7 0.7 -0.3
v 0.7 0.7 -0.9
v 0.7 0.7 -1
v 0.7 0.7 -1.1
v 0.7 0.9 -1
v 0.7 0.9 -1.1
v 0.7 1 1
v 0.7 1 0.9
v 0.7 1 0.7
v 0.7 1 -0.1
v 0.7 1 -0.2
v 0.7 1 -0.6
v 0.7 1.2 0.9
v 0.7 1.2 0.8
v 0.7 1.2 0.7
v 0.7 1.2 0.6
v 0.7 1.3 0.8
v 0.7 1.3 0.7
v 0.7 1.4 0.6
v 0.7 1.4 0.5
v 0.7 1.5 0.7
v 0.7 1.5 0.6
v 0.7 1.5 -1
v 0.7 1.5 -1.1
v 0.7 1.6 0.5
v 0.7 1.6 0.4
v 0.7 1.6 -0.5
v 0.7 1.6 -0.6
v 0.7 1.7 0.6
v 0.7 1.7 0.5
v 0.7 1.7 0.4
v 0.7 1.7 -0.1
v 0.7 1.7 -0.2
v 0.7 1.7 -0.5
v 0.7 1.7 -0.9
v 0.7 1.7 -1
v 0.7 1.8 0.5
v 0.7 1.8 -0.9
v -0.7 0.3 1
v -0.7 0.5 1
v -0.7 0.7 1
v -0.7 1 1
v -0.6 0.5 1
v -0.6 0.7 1
v -0.6 0.9 1
v -0.6 1 1
v -0.3 0.5 1
v -0.3 0.7 1
v 0.3 0.5 1
v 0.3 0.7 1
v 0.6 0.5 1
v 0.6 0.7 1
v 0.6 0.9 1
v 0.6 1 1
v 0.7 0.3 1
v 0.7 0.5 1
v 0.7 0.7 1
v 0.7 1 1
v -0.7 1 0.9
v -0.7 1.2 0.9
v -0.6 1 0.9
v -0.6 1.2 0.9
v 0.6 1 0.9
v 0.6 1.2 0.9
v 0.7 1 0.9
v 0.7 1.2 0.9
v -0.7 0.1 0.8
v -0.7 0.3 0.8
v -0.7 1.2 0.8
v -0.7 1.3 0.8
v -0.6 0.3 0.8
v -0.6 1.2 0.8
v -0.6 1.3 0.8
v -0.5 0.1 0.8
v -0.5 0.3 0.8
v 0.5 0.1 0.8
v 0.5 0.3 0.8
v 0.6 0.3 0.8
v 0.6 1.2 0.8
v 0.6 1.3 0.8
v 0.7 0.1 0.8
v 0.7 0.3 0.8
v 0.7 1.2 0.8
v 0.7 1.3 0.8
v -0.7 0 0.7
v -0.7 0.1 0.7
v -0.7 1.3 0.7
v -0.7 1.5 0.7
v -0.6 1.3 0.7
v -0.6 1.5 0.7
v -0.5 0 0.7
v -0.5 0.1 0.7
v 0.5 0 0.7
v 0.5 0.1 0.7
v 0.6 1.3 0.7
v 0.6 1.5 0.7
v 0.7 0 0.7
v 0.7 0.1 0.7
v 0.7 1.3 0.7
v 0.7 1.5 0.7
v -0.7 1.5 0.6
v -0.7 1.7 0.6
v -0.6 1.5 0.6
v -0.6 1.7 0.6
v 0.6 1.5 0.6
v 0.6 1.7 0.6
v 0.7 1.5 0.6
v 0.7 1.7 0.6
v -0.7 1.7 0.5
v -0.7 1.8 0.5
v -0.6 1.7 0.5
v 0.6 1.7 0.5
v 0.7 1.7 0.5
v 0.7 1.8 0.5
v -0.7 0.1 -0.3
v -0.7 0.3 -0.3
v -0.6 0.3 -0.3
v -0.5 0.1 -0.3
v -0.5 0.3 -0.3
v 0.5 0.1 -0.3
v 0.5 0.3 -0.3
v 0.6 0.3 -0.3
v 0.7 0.1 -0.3
v 0.7 0.3 -0.3
v -0.7 0 -0.4
v -0.7 0.1 -0.4
v -0.5 0 -0.4
v -0.5 0.1 -0.4
v 0.5 0 -0.4
v 0.5 0.1 -0.4
v 0.7 0 -0.4
v 0.7 0.1 -0.4
v -0.7 0 0.3
v -0.7 0.1 0.3
v -0.5 0 0.3
v -0.5 0.1 0.3
v 0.5 0 0.3
v 0.5 0.1 0.3
v 0.7 0 0.3
v 0.7 0.1 0.3
v -0.7 0.1 0.2
v -0.7 0.3 0.2
v -0.6 0.3 0.2
v -0.5 0.1 0.2
v -0.5 0.3 0.2
v 0.5 0.1 0.2
v 0.5 0.3 0.2
v 0.6 0.3 0.2
v 0.7 0.1 0.2
v 0.7 0.3 0.2
v -0.7 0 -0.8
v -0.7 0.1 -0.8
v -0.5 0 -0.8
v -0.5 0.1 -0.8
v 0.5 0 -0.8
v 0.5 0.1 -0.8
v 0.7 0 -0.8
v 0.7 0.1 -0.8
v -0.7 0.1 -0.9
v -0.7 0.3 -0.9
v -0.7 1.7 -0.9
v -0.7 1.8 -0.9
v -0.6 0.3 -0.9
v -0.5 0.1 -0.9
v -0.5 0.3 -0.9
v 0.5 0.1 -0.9
v 0.5 0.3 -0.9
v 0.6 0.3 -0.9
v 0.7 0.1 -0.9
v 0.7 0.3 -0.9
v 0.7 1.7 -0.9
v 0.7 1.8 -0.9
v -0.7 1.5 -1
v -0.7 1.7 -1
v 0.7 1.5 -1
v 0.7 1.7 -1
v -0.7 0.3 -1.1
v -0.7 0.7 -1.1
v -0.7 0.9 -1.1
v -0.7 1.5 -1.1
v -0.5 0.7 -1.1
v -0.5 0.9 -1.1
v -0.3 0.7 -1.1
v -0.3 0.9 -1.1
v 0.3 0.7 -1.1
v 0.3 0.9 -1.1
v 0.5 0.7 -1.1
v 0.5 0.9 -1.1
v 0.7 0.3 -1.1
v 0.7 0.7 -1.1
v 0.7 0.9 -1.1
v 0.7 1.5 -1.1
v -0.7 0 0.7
v -0.5 0 0.7
v 0.5 0 0.7
v 0.7 0 0.7
v -0.7 0 0.3
v -0.5 0 0.3
v 0.5 0 0.3
v 0.7 0 0.3
v -0.7 0 -0.4
v -0.5 0 -0.4
v 0.5 0 -0.4
v 0.7 0 -0.4
v -0.7 0 -0.8
v -0.5 0 -0.8
v 0.5 0 -0.8
v 0.7 0 -0.8
v -0.7 0.1 0.8
v -0.5 0.1 0.8
v 0.5 0.1 0.8
v 0.7 0.1 0.8
v -0.7 0.1 0.7
v -0.5 0.1 0.7
v 0.5 0.1 0.7
v 0.7 0.1 0.7
v -0.7 0.1 0.3
v -0.5 0.1 0.3
v 0.5 0.1 0.3
v 0.7 0.1 0.3
v -0.7 0.1 0.2
v -0.5 0.1 0.2
v 0.5 0.1 0.2
v 0.7 0.1 0.2
v -0.7 0.1 -0.3
v -0.5 0.1 -0.3
v 0.5 0.1 -0.3
v 0.7 0.1 -0.3
v -0.7 0.1 -0.4
v -0.5 0.1 -0.4
v 0.5 0.1 -0.4
v 0.7 0.1 -0.4
v -0.7 0.1 -0.8
v -0.5 0.1 -0.8
v 0.5 0.1 -0.8
v 0.7 0.1 -0.8
v -0.7 0.1 -0.9
v -0.5 0.1 -0.9
v 0.5 0.1 -0.9
v 0.7 0.1 -0.9
v -0.7 0.3 1
v 0.7 0.3 1
v -0.7 0.3 0.9
v -0.6 0.3 0.9
v 0.6 0.3 0.9
v 0.7 0.3 0.9
v -0.7 0.3 0.8
v -0.6 0.3 0.8
v -0.5 0.3 0.8
v 0.5 0.3 0.8
v 0.6 0.3 0.8
v 0.7 0.3 0.8
v -0.5 0.3 0.6
v 0.5 0.3 0.6
v -0.5 0.3 0.4
v 0.5 0.3 0.4
v -0.7 0.3 0.2
v -0.6 0.3 0.2
v -0.5 0.3 0.2
v 0.5 0.3 0.2
v 0.6 0.3 0.2
v 0.7 0.3 0.2
v -0.7 0.3 0.1
v -0.6 0.3 0.1
v 0.6 0.3 0.1
v 0.7 0.3 0.1
v -0.7 0.3 -0.2
v -0.6 0.3 -0.2
v 0.6 0.3 -0.2
v 0.7 0.3 -0.2
v -0.7 0.3 -0.3
v -0.6 0.3 -0.3
v -0.5 0.3 -0.3
v 0.5 0.3 -0.3
v 0.6 0.3 -0.3
v 0.7 0.3 -0.3
v -0.5 0.3 -0.5
v 0.5 0.3 -0.5
v -0.5 0.3 -0.7
v 0.5 0.3 -0.7
v -0.7 0.3 -0.9
v -0.6 0.3 -0.9
v -0.5 0.3 -0.9
v 0.5 0.3 -0.9
v 0.6 0.3 -0.9
v 0.7 0.3 -0.9
v -0.7 0.3 -1
v -0.6 0.3 -1
v 0.6 0.3 -1
v 0.7 0.3 -1
v -0.7 0.3 -1.1
v 0.7 0.3 -1.1
v -0.7 1 1
v -0.6 1 1
v 0.6 1 1
v 0.7 1 1
v -0.7 1 0.9
v -0.6 1 0.9
v 0.6 1 0.9
v 0.7 1 0.9
v -0.7 1.2 0.9
v -0.6 1.2 0.9
v 0.6 1.2 0.9
v 0.7 1.2 0.9
v -0.7 1.2 0.8
v -0.6 1.2 0.8
v 0.6 1.2 0.8
v 0.7 1.2 0.8
v -0.7 1.3 0.8
v -0.6 1.3 0.8
v 0.6 1.3 0.8
v 0.7 1.3 0.8
v -0.7 1.3 0.7
v -0.6 1.3 0.7
v 0.6 1.3 0.7
v 0.7 1.3 0.7
v -0.7 1.5 0.7
v -0.6 1.5 0.7
v 0.6 1.5 0.7
v 0.7 1.5 0.7
v -0.7 1.5 0.6
v -0.6 1.5 0.6
v 0.6 1.5 0.6
v 0.7 1.5 0.6
v -0.7 1.5 -1
v 0.7 1.5 -1
v -0.7 1.5 -1.1
v 0.7 1.5 -1.1
v -0.7 1.7 0.6
v -0.6 1.7 0.6
v 0.6 1.7 0.6
v 0.7 1.7 0.6
v -0.7 1.7 0.5
v -0.6 1.7 0.5
v 0.6 1.7 0.5
v 0.7 1.7 0.5
v -0.7 1.7 -0.9
v 0.7 1.7 -0.9
v -0.7 1.7 -1
v 0.7 1.7 -1
v -0.7 1.8 0.5
v 0.7 1.8 0.5
v -0.7 1.8 -0.9
v 0.7 1.8 -0.9

# faces
f 6/8/1 2/8/1 1/8/1
f 7/8/1 2/8/1 6/8/1
f 10/8/1 4/8/1 3/8/1
f 11/8/1 4/8/1 10/8/1
f 13/8/1 8/8/1 7/8/1
f 13/8/1 6/8/1 5/8/1
f 13/8/1 7/8/1 6/8/1
f 14/8/1 8/8/1 13/8/1
f 15/8/1 12/8/1 11/8/1
f 15/8/1 11/8/1 10/8/1
f 15/8/1 10/8/1 9/8/1
f 16/8/1 12/8/1 15/8/1
f 19/8/1 13/8/1 5/8/1
f 20/8/1 8/8/1 14/8/1
f 23/8/1 15/8/1 9/8/1
f 24/8/1 12/8/1 16/8/1
f 27/5/1 14/5/1 13/5/1
f 27/8/1 13/8/1 19/8/1
f 28/8/1 20/8/1 14/8/1
f 28/5/1 14/5/1 27/5/1
f 29/5/1 16/5/1 15/5/1
f 29/8/1 15/8/1 23/8/1
f 30/8/1 24/8/1 16/8/1
f 30/5/1 16/5/1 29/5/1
f 31/4/1 18/4/1 17/4/1
f 32/6/1 19/6/1 18/6/1
f 32/4/1 18/4/1 31/4/1
f 33/8/1 27/8/1 19/8/1
f 33/6/1 19/6/1 32/6/1
f 33/8/1 28/8/1 27/8/1
f 34/8/1 28/8/1 33/8/1
f 35/8/1 20/8/1 28/8/1
f 35/8/1 28/8/1 34/8/1
f 36/6/1 21/6/1 20/6/1
f 36/8/1 20/8/1 35/8/1
f 37/6/1 23/6/1 22/6/1
f 37/8/1 30/8/1 29/8/1
f 37/8/1 29/8/1 23/8/1
f 38/8/1 30/8/1 37/8/1
f 39/8/1 24/8/1 30/8/1
f 39/8/1 30/8/1 38/8/1
f 40/6/1 25/6/1 24/6/1
f 40/8/1 24/8/1 39/8/1
f 41/6/1 34/6/1 33/6/1
f 41/1/1 32/1/1 31/1/1
f 41/6/1 33/6/1 32/6/1
f 42/6/1 34/6/1 41/6/1
f 43/8/1 35/8/1 34/8/1
f 43/6/1 34/6/1 42/6/1
f 44/6/1 36/6/1 35/6/1
f 44/8/1 35/8/1 43/8/1
f 45/6/1 21/6/1 36/6/1
f 45/6/1 36/6/1 44/6/1
f 46/4/1 22/4/1 21/4/1
f 46/6/1 21/6/1 45/6/1
f 47/6/1 38/6/1 37/6/1
f 47/4/1 22/4/1 46/4/1
f 47/6/1 37/6/1 22/6/1
f 48/6/1 38/6/1 47/6/1
f 49/8/1 39/8/1 38/8/1
f 49/6/1 38/6/1 48/6/1
f 50/6/1 40/6/1 39/6/1
f 50/8/1 39/8/1 49/8/1
f 51/6/1 25/6/1 40/6/1
f 51/6/1 40/6/1 50/6/1
f 52/4/1 26/4/1 25/4/1
f 52/6/1 25/6/1 51/6/1
f 53/1/1 41/1/1 31/1/1
f 54/4/1 42/4/1 41/4/1
f 54/1/1 41/1/1 53/1/1
f 55/6/1 45/6/1 44/6/1
f 55/4/1 42/4/1 54/4/1
f 55/6/1 44/6/1 43/6/1
f 55/6/1 43/6/1 42/6/1
f 56/4/1 46/4/1 45/4/1
f 56/6/1 45/6/1 55/6/1
f 56/4/1 48/4/1 47/4/1
f 56/4/1 47/4/1 46/4/1
f 57/6/1 51/6/1 50/6/1
f 57/4/1 48/4/1 56/4/1
f 57/6/1 50/6/1 49/6/1
f 57/6/1 49/6/1 48/6/1
f 58/4/1 52/4/1 51/4/1
f 58/6/1 51/6/1 57/6/1
f 59/4/1 26/4/1 52/4/1
f 59/4/1 52/4/1 58/4/1
f 60/4/1 26/4/1 59/4/1
f 61/4/1 56/4/1 55/4/1
f 61/4/1 55/4/1 54/4/1
f 61/1/1 60/1/1 59/1/1
f 61/4/1 59/4/1 58/4/1
f 61/4/1 54/4/1 53/4/1
f 61/4/1 58/4/1 57/4/1
f 61/4/1 57/4/1 56/4/1
f 62/1/1 60/1/1 61/1/1
f 63/4/1 61/4/1 53/4/1
f 63/4/1 62/4/1 61/4/1
f 64/4/1 62/4/1 63/4/1
f 65/4/1 62/4/1 64/4/1
f 66/4/1 62/4/1 65/4/1
f 67/4/1 62/4/1 66/4/1
f 68/4/1 62/4/1 67/4/1
f 69/4/1 65/4/1 64/4/1
f 70/4/1 65/4/1 69/4/1
f 71/7/1 66/7/1 65/7/1
f 71/4/1 65/4/1 70/4/1
f 72/7/1 66/7/1 71/7/1
f 73/4/1 71/4/1 70/4/1
f 73/4/1 72/4/1 71/4/1
f 74/4/1 72/4/1 73/4/1
f 75/7/1 66/7/1 72/7/1
f 75/4/1 72/4/1 74/4/1
f 76/7/1 66/7/1 75/7/1
f 77/4/1 75/4/1 74/4/1
f 77/4/1 76/4/1 75/4/1
f 78/4/1 76/4/1 77/4/1
f 79/4/1 62/4/1 68/4/1
f 80/4/1 62/4/1 79/4/1
f 81/4/1 76/4/1 78/4/1
f 81/7/1 66/7/1 76/7/1
f 82/7/1 66/7/1 81/7/1
f 83/7/1 68/7/1 67/7/1
f 84/4/1 79/4/1 68/4/1
f 84/7/1 68/7/1 83/7/1
f 85/4/1 81/4/1 78/4/1
f 85/4/1 82/4/1 81/4/1
f 86/4/1 82/4/1 85/4/1
f 87/7/1 66/7/1 82/7/1
f 87/4/1 82/4/1 86/4/1
f 88/4/1 67/4/1 66/4/1
f 88/7/1 66/7/1 87/7/1
f 89/7/1 83/7/1 67/7/1
f 89/4/1 67/4/1 88/4/1
f 90/4/1 84/4/1 83/4/1
f 90/7/1 83/7/1 89/7/1
f 91/4/1 79/4/1 84/4/1
f 91/4/1 84/4/1 90/4/1
f 92/4/1 79/4/1 91/4/1
f 93/4/1 87/4/1 86/4/1
f 93/4/1 91/4/1 90/4/1
f 93/4/1 88/4/1 87/4/1
f 93/4/1 89/4/1 88/4/1
f 93/4/1 90/4/1 89/4/1
f 94/4/1 91/4/1 93/4/1
f 100/8/1 96/8/1 95/8/1
f 101/8/1 96/8/1 100/8/1
f 104/8/1 98/8/1 97/8/1
f 105/8/1 98/8/1 104/8/1
f 107/8/1 102/8/1 101/8/1
f 107/8/1 100/8/1 99/8/1
f 107/8/1 101/8/1 100/8/1
f 108/8/1 102/8/1 107/8/1
f 109/8/1 106/8/1 105/8/1
f 109/8/1 105/8/1 104/8/1
f 109/8/1 104/8/1 103/8/1
f 110/8/1 106/8/1 109/8/1
f 111/8/1 107/8/1 99/8/1
f 112/5/1 108/5/1 107/5/1
f 112/8/1 107/8/1 111/8/1
f 113/8/1 102/8/1 108/8/1
f 113/5/1 108/5/1 112/5/1
f 114/8/1 102/8/1 113/8/1
f 115/8/1 109/8/1 103/8/1
f 116/5/1 110/5/1 109/5/1
f 116/8/1 109/8/1 115/8/1
f 117/8/1 106/8/1 110/8/1
f 117/5/1 110/5/1 116/5/1
f 118/8/1 106/8/1 117/8/1
f 119/8/2 120/8/2 124/8/2
f 124/8/2 120/8/2 125/8/2
f 121/8/2 122/8/2 128/8/2
f 128/8/2 122/8/2 129/8/2
f 125/8/2 126/8/2 131/8/2
f 123/8/2 124/8/2 131/8/2
f 124/8/2 125/8/2 131/8/2
f 131/8/2 126/8/2 132/8/2
f 129/8/2 130/8/2 133/8/2
f 128/8/2 129/8/2 133/8/2
f 127/8/2 128/8/2 133/8/2
f 133/8/2 130/8/2 134/8/2
f 123/8/2 131/8/2 135/8/2
f 131/5/2 132/5/2 136/5/2
f 135/8/2 131/8/2 136/8/2
f 132/8/2 126/8/2 137/8/2
f 136/5/2 132/5/2 137/5/2
f 137/8/2 126/8/2 138/8/2
f 127/8/2 133/8/2 139/8/2
f 133/5/2 134/5/2 140/5/2
f 139/8/2 133/8/2 140/8/2
f 134/8/2 130/8/2 141/8/2
f 140/5/2 134/5/2 141/5/2
f 141/8/2 130/8/2 142/8/2
f 143/8/2 144/8/2 148/8/2
f 148/8/2 144/8/2 149/8/2
f 145/8/2 146/8/2 152/8/2
f 152/8/2 146/8/2 153/8/2
f 149/8/2 150/8/2 155/8/2
f 147/8/2 148/8/2 155/8/2
f 148/8/2 149/8/2 155/8/2
f 155/8/2 150/8/2 156/8/2
f 153/8/2 154/8/2 157/8/2
f 152/8/2 153/8/2 157/8/2
f 151/8/2 152/8/2 157/8/2
f 157/8/2 154/8/2 158/8/2
f 147/8/2 155/8/2 161/8/2
f 156/8/2 150/8/2 162/8/2
f 151/8/2 157/8/2 165/8/2
f 158/8/2 154/8/2 166/8/2
f 155/5/2 156/5/2 169/5/2
f 161/8/2 155/8/2 169/8/2
f 156/8/2 162/8/2 170/8/2
f 169/5/2 156/5/2 170/5/2
f 157/5/2 158/5/2 171/5/2
f 165/8/2 157/8/2 171/8/2
f 158/8/2 166/8/2 172/8/2
f 171/5/2 158/5/2 172/5/2
f 159/4/2 160/4/2 173/4/2
f 160/6/2 161/6/2 174/6/2
f 173/4/2 160/4/2 174/4/2
f 161/8/2 169/8/2 175/8/2
f 174/6/2 161/6/2 175/6/2
f 169/8/2 170/8/2 175/8/2
f 175/8/2 170/8/2 176/8/2
f 170/8/2 162/8/2 177/8/2
f 176/8/2 170/8/2 177/8/2
f 162/6/2 163/6/2 178/6/2
f 177/8/2 162/8/2 178/8/2
f 164/6/2 165/6/2 179/6/2
f 171/8/2 172/8/2 179/8/2
f 165/8/2 171/8/2 179/8/2
f 179/8/2 172/8/2 180/8/2
f 172/8/2 166/8/2 181/8/2
f 180/8/2 172/8/2 181/8/2
f 166/6/2 167/6/2 182/6/2
f 181/8/2 166/8/2 182/8/2
f 175/6/2 176/6/2 183/6/2
f 173/1/2 174/1/2 183/1/2
f 174/6/2 175/6/2 183/6/2
f 183/6/2 176/6/2 184/6/2
f 176/8/2 177/8/2 185/8/2
f 184/6/2 176/6/2 185/6/2
f 177/6/2 178/6/2 186/6/2
f 185/8/2 177/8/2 186/8/2
f 178/6/2 163/6/2 187/6/2
f 186/6/2 178/6/2 187/6/2
f 163/4/2 164/4/2 188/4/2
f 187/6/2 163/6/2 188/6/2
f 179/6/2 180/6/2 189/6/2
f 188/4/2 164/4/2 189/4/2
f 164/6/2 179/6/2 189/6/2
f 189/6/2 180/6/2 190/6/2
f 180/8/2 181/8/2 191/8/2
f 190/6/2 180/6/2 191/6/2
f 181/6/2 182/6/2 192/6/2
f 191/8/2 181/8/2 192/8/2
f 182/6/2 167/6/2 193/6/2
f 192/6/2 182/6/2 193/6/2
f 167/4/2 168/4/2 194/4/2
f 193/6/2 167/6/2 194/6/2
f 173/1/2 183/1/2 195/1/2
f 183/4/2 184/4/2 196/4/2
f 195/1/2 183/1/2 196/1/2
f 186/6/2 187/6/2 197/6/2
f 196/4/2 184/4/2 197/4/2
f 185/6/2 186/6/2 197/6/2
f 184/6/2 185/6/2 197/6/2
f 187/4/2 188/4/2 198/4/2
f 197/6/2 187/6/2 198/6/2
f 189/4/2 190/4/2 198/4/2
f 188/4/2 189/4/2 198/4/2
f 192/6/2 193/6/2 199/6/2
f 198/4/2 190/4/2 199/4/2
f 191/6/2 192/6/2 199/6/2
f 190/6/2 191/6/2 199/6/2
f 193/4/2 194/4/2 200/4/2
f 199/6/2 193/6/2 200/6/2
f 194/4/2 168/4/2 201/4/2
f 200/4/2 194/4/2 201/4/2
f 201/4/2 168/4/2 202/4/2
f 197/4/2 198/4/2 203/4/2
f 196/4/2 197/4/2 203/4/2
f 201/1/2 202/1/2 203/1/2
f 200/4/2 201/4/2 203/4/2
f 195/4/2 196/4/2 203/4/2
f 199/4/2 200/4/2 203/4/2
f 198/4/2 199/4/2 203/4/2
f 203/1/2 202/1/2 204/1/2
f 195/4/2 203/4/2 205/4/2
f 203/4/2 204/4/2 205/4/2
f 205/4/2 204/4/2 206/4/2
f 206/4/2 204/4/2 207/4/2
f 207/4/2 204/4/2 208/4/2
f 208/4/2 204/4/2 209/4/2
f 209/4/2 204/4/2 210/4/2
f 206/4/2 207/4/2 211/4/2
f 211/4/2 207/4/2 212/4/2
f 207/7/2 208/7/2 213/7/2
f 212/4/2 207/4/2 213/4/2
f 213/7/2 208/7/2 214/7/2
f 212/4/2 213/4/2 215/4/2
f 213/4/2 214/4/2 215/4/2
f 215/4/2 214/4/2 216/4/2
f 214/7/2 208/7/2 217/7/2
f 216/4/2 214/4/2 217/4/2
f 217/7/2 208/7/2 218/7/2
f 216/4/2 217/4/2 219/4/2
f 217/4/2 218/4/2 219/4/2
f 219/4/2 218/4/2 220/4/2
f 210/4/2 204/4/2 221/4/2
f 221/4/2 204/4/2 222/4/2
f 220/4/2 218/4/2 223/4/2
f 218/7/2 208/7/2 223/7/2
f 223/7/2 208/7/2 224/7/2
f 209/7/2 210/7/2 225/7/2
f 210/4/2 221/4/2 226/4/2
f 225/7/2 210/7/2 226/7/2
f 220/4/2 223/4/2 227/4/2
f 223/4/2 224/4/2 227/4/2
f 227/4/2 224/4/2 228/4/2
f 224/7/2 208/7/2 229/7/2
f 228/4/2 224/4/2 229/4/2
f 208/4/2 209/4/2 230/4/2
f 229/7/2 208/7/2 230/7/2
f 209/7/2 225/7/2 231/7/2
f 230/4/2 209/4/2 231/4/2
f 225/4/2 226/4/2 232/4/2
f 231/7/2 225/7/2 232/7/2
f 226/4/2 221/4/2 233/4/2
f 232/4/2 226/4/2 233/4/2
f 233/4/2 221/4/2 234/4/2
f 228/4/2 229/4/2 235/4/2
f 232/4/2 233/4/2 235/4/2
f 229/4/2 230/4/2 235/4/2
f 230/4/2 231/4/2 235/4/2
f 231/4/2 232/4/2 235/4/2
f 235/4/2 233/4/2 236/4/2
f 241/4/3 238/4/3 237/4/3
f 241/1/3 239/1/3 238/1/3
f 242/4/3 240/4/3 239/4/3
f 242/1/3 239/1/3 241/1/3
f 243/4/3 240/4/3 242/4/3
f 244/4/3 240/4/3 243/4/3
f 245/4/3 241/4/3 237/4/3
f 245/9/3 242/9/3 241/9/3
f 246/4/3 243/4/3 242/4/3
f 246/9/3 242/9/3 245/9/3
f 247/4/3 245/4/3 237/4/3
f 247/4/3 246/4/3 245/4/3
f 248/4/3 243/4/3 246/4/3
f 248/4/3 246/4/3 247/4/3
f 249/4/3 247/4/3 237/4/3
f 249/9/3 248/9/3 247/9/3
f 250/4/3 243/4/3 248/4/3
f 250/9/3 248/9/3 249/9/3
f 251/7/3 244/7/3 243/7/3
f 251/4/3 243/4/3 250/4/3
f 252/7/3 244/7/3 251/7/3
f 253/4/3 249/4/3 237/4/3
f 254/1/3 250/1/3 249/1/3
f 254/4/3 249/4/3 253/4/3
f 255/4/3 251/4/3 250/4/3
f 255/1/3 250/1/3 254/1/3
f 255/4/3 252/4/3 251/4/3
f 256/4/3 252/4/3 255/4/3
f 259/4/3 258/4/3 257/4/3
f 260/4/3 258/4/3 259/4/3
f 261/7/3 260/7/3 259/7/3
f 262/7/3 260/7/3 261/7/3
f 263/4/3 262/4/3 261/4/3
f 264/4/3 262/4/3 263/4/3
f 269/8/3 266/8/3 265/8/3
f 270/4/3 268/4/3 267/4/3
f 271/4/3 268/4/3 270/4/3
f 272/8/3 269/8/3 265/8/3
f 273/8/3 269/8/3 272/8/3
f 276/8/3 275/8/3 274/8/3
f 277/7/3 271/7/3 270/7/3
f 278/7/3 271/7/3 277/7/3
f 279/8/3 276/8/3 274/8/3
f 280/8/3 276/8/3 279/8/3
f 281/4/3 278/4/3 277/4/3
f 282/4/3 278/4/3 281/4/3
f 287/4/3 286/4/3 285/4/3
f 288/4/3 286/4/3 287/4/3
f 289/8/3 284/8/3 283/8/3
f 290/8/3 284/8/3 289/8/3
f 293/7/3 288/7/3 287/7/3
f 294/7/3 288/7/3 293/7/3
f 295/8/3 292/8/3 291/8/3
f 296/8/3 292/8/3 295/8/3
f 297/4/3 294/4/3 293/4/3
f 298/4/3 294/4/3 297/4/3
f 301/4/3 300/4/3 299/4/3
f 302/4/3 300/4/3 301/4/3
f 303/7/3 302/7/3 301/7/3
f 304/7/3 302/7/3 303/7/3
f 305/4/3 304/4/3 303/4/3
f 306/4/3 304/4/3 305/4/3
f 309/4/3 308/4/3 307/4/3
f 310/4/3 308/4/3 309/4/3
f 311/4/3 308/4/3 310/4/3
f 312/4/3 308/4/3 311/4/3
f 315/8/3 314/8/3 313/8/3
f 316/8/3 315/8/3 313/8/3
f 317/8/3 315/8/3 316/8/3
f 320/8/3 319/8/3 318/8/3
f 321/8/3 320/8/3 318/8/3
f 322/8/3 320/8/3 321/8/3
f 325/8/3 324/8/3 323/8/3
f 326/8/3 324/8/3 325/8/3
f 329/8/3 328/8/3 327/8/3
f 330/8/3 328/8/3 329/8/3
f 331/8/4 332/8/4 333/8/4
f 333/8/4 332/8/4 334/8/4
f 335/8/4 336/8/4 337/8/4
f 337/8/4 336/8/4 338/8/4
f 339/8/4 340/8/4 341/8/4
f 339/8/4 341/8/4 342/8/4
f 342/8/4 341/8/4 343/8/4
f 344/8/4 345/8/4 346/8/4
f 344/8/4 346/8/4 347/8/4
f 347/8/4 346/8/4 348/8/4
f 349/8/4 350/8/4 351/8/4
f 351/8/4 350/8/4 352/8/4
f 353/8/4 354/8/4 355/8/4
f 355/8/4 354/8/4 356/8/4
f 357/8/4 358/8/4 361/8/4
f 357/8/4 361/8/4 362/8/4
f 362/8/4 361/8/4 363/8/4
f 364/8/4 365/8/4 366/8/4
f 364/8/4 366/8/4 367/8/4
f 367/8/4 366/8/4 368/8/4
f 359/4/4 360/4/4 369/4/4
f 369/4/4 360/4/4 370/4/4
f 371/4/4 372/4/4 373/4/4
f 373/4/4 372/4/4 374/4/4
f 375/4/4 376/4/4 379/4/4
f 376/1/4 377/1/4 379/1/4
f 377/4/4 378/4/4 380/4/4
f 379/1/4 377/1/4 380/1/4
f 375/4/4 379/4/4 381/4/4
f 379/2/4 380/2/4 381/2/4
f 380/4/4 378/4/4 382/4/4
f 381/2/4 380/2/4 382/2/4
f 375/4/4 381/4/4 383/4/4
f 381/4/4 382/4/4 383/4/4
f 382/4/4 378/4/4 384/4/4
f 383/4/4 382/4/4 384/4/4
f 375/4/4 383/4/4 385/4/4
f 383/2/4 384/2/4 385/2/4
f 384/4/4 378/4/4 386/4/4
f 385/2/4 384/2/4 386/2/4
f 375/4/4 385/4/4 387/4/4
f 385/1/4 386/1/4 388/1/4
f 387/4/4 385/4/4 388/4/4
f 386/4/4 378/4/4 389/4/4
f 388/1/4 386/1/4 389/1/4
f 389/4/4 378/4/4 390/4/4
f 395/8/5 392/8/5 391/8/5
f 396/8/5 392/8/5 395/8/5
f 397/8/5 394/8/5 393/8/5
f 398/8/5 394/8/5 397/8/5
f 403/8/5 400/8/5 399/8/5
f 404/8/5 400/8/5 403/8/5
f 405/8/5 402/8/5 401/8/5
f 406/8/5 402/8/5 405/8/5
f 411/8/5 408/8/5 407/8/5
f 412/8/5 408/8/5 411/8/5
f 413/8/5 410/8/5 409/8/5
f 414/8/5 410/8/5 413/8/5
f 419/8/5 416/8/5 415/8/5
f 420/8/5 416/8/5 419/8/5
f 421/8/5 418/8/5 417/8/5
f 422/8/5 418/8/5 421/8/5
f 427/8/5 424/8/5 423/8/5
f 428/8/5 424/8/5 427/8/5
f 429/8/5 426/8/5 425/8/5
f 430/8/5 426/8/5 429/8/5
f 435/8/5 432/8/5 431/8/5
f 436/8/5 432/8/5 435/8/5
f 437/8/5 434/8/5 433/8/5
f 438/8/5 434/8/5 437/8/5
f 441/4/5 440/4/5 439/4/5
f 442/4/5 440/4/5 441/4/5
f 443/4/5 440/4/5 442/4/5
f 444/4/5 440/4/5 443/4/5
f 445/6/5 442/6/5 441/6/5
f 446/4/5 443/4/5 442/4/5
f 446/6/5 442/6/5 445/6/5
f 447/4/5 443/4/5 446/4/5
f 448/4/5 443/4/5 447/4/5
f 449/6/5 444/6/5 443/6/5
f 449/4/5 443/4/5 448/4/5
f 450/6/5 444/6/5 449/6/5
f 451/4/5 448/4/5 447/4/5
f 452/4/5 448/4/5 451/4/5
f 453/4/5 452/4/5 451/4/5
f 454/4/5 452/4/5 453/4/5
f 457/4/5 454/4/5 453/4/5
f 458/4/5 454/4/5 457/4/5
f 461/6/5 456/6/5 455/6/5
f 462/4/5 458/4/5 457/4/5
f 462/6/5 456/6/5 461/6/5
f 462/4/5 457/4/5 456/4/5
f 462/4/5 459/4/5 458/4/5
f 463/6/5 460/6/5 459/6/5
f 463/4/5 459/4/5 462/4/5
f 464/6/5 460/6/5 463/6/5
f 465/4/5 462/4/5 461/4/5
f 465/4/5 463/4/5 462/4/5
f 465/4/5 464/4/5 463/4/5
f 466/4/5 464/4/5 465/4/5
f 467/4/5 464/4/5 466/4/5
f 468/4/5 464/4/5 467/4/5
f 469/6/5 466/6/5 465/6/5
f 470/4/5 467/4/5 466/4/5
f 470/6/5 466/6/5 469/6/5
f 471/4/5 467/4/5 470/4/5
f 472/4/5 467/4/5 471/4/5
f 473/6/5 468/6/5 467/6/5
f 473/4/5 467/4/5 472/4/5
f 474/6/5 468/6/5 473/6/5
f 475/4/5 472/4/5 471/4/5
f 476/4/5 472/4/5 475/4/5
f 477/4/5 476/4/5 475/4/5
f 478/4/5 476/4/5 477/4/5
f 481/4/5 478/4/5 477/4/5
f 482/4/5 478/4/5 481/4/5
f 485/6/5 480/6/5 479/6/5
f 486/4/5 482/4/5 481/4/5
f 486/6/5 480/6/5 485/6/5
f 486/4/5 481/4/5 480/4/5
f 486/4/5 483/4/5 482/4/5
f 487/6/5 484/6/5 483/6/5
f 487/4/5 483/4/5 486/4/5
f 488/6/5 484/6/5 487/6/5
f 489/4/5 486/4/5 485/4/5
f 489/4/5 487/4/5 486/4/5
f 489/4/5 488/4/5 487/4/5
f 490/4/5 488/4/5 489/4/5
f 491/4/6 492/4/6 495/4/6
f 492/7/6 493/7/6 496/7/6
f 495/4/6 492/4/6 496/4/6
f 493/4/6 494/4/6 497/4/6
f 496/7/6 493/7/6 497/7/6
f 497/4/6 494/4/6 498/4/6
f 499/4/6 500/4/6 503/4/6
f 500/7/6 501/7/6 504/7/6
f 503/4/6 500/4/6 504/4/6
f 501/4/6 502/4/6 505/4/6
f 504/7/6 501/7/6 505/7/6
f 505/4/6 502/4/6 506/4/6
f 507/4/6 508/4/6 511/4/6
f 508/7/6 509/7/6 512/7/6
f 511/4/6 508/4/6 512/4/6
f 509/4/6 510/4/6 513/4/6
f 512/7/6 509/7/6 513/7/6
f 513/4/6 510/4/6 514/4/6
f 515/4/6 516/4/6 519/4/6
f 516/7/6 517/7/6 520/7/6
f 519/4/6 516/4/6 520/4/6
f 517/4/6 518/4/6 521/4/6
f 520/7/6 517/7/6 521/7/6
f 521/4/6 518/4/6 522/4/6
f 523/4/6 524/4/6 525/4/6
f 525/4/6 524/4/6 526/4/6
f 527/4/6 528/4/6 531/4/6
f 528/7/6 529/7/6 532/7/6
f 531/4/6 528/4/6 532/4/6
f 529/4/6 530/4/6 533/4/6
f 532/7/6 529/7/6 533/7/6
f 533/4/6 530/4/6 534/4/6
f 535/4/6 536/4/6 537/4/6
f 537/4/6 536/4/6 538/4/6
f 539/4/6 540/4/6 541/4/6
f 541/4/6 540/4/6 542/4/6
