# MagicaVoxel @ Ephtracy

# group
o 

# material
mtllib van white.mtl
usemtl palette

# normals
vn -1 0 0
vn 1 0 0
vn 0 0 1
vn 0 0 -1
vn 0 -1 0
vn 0 1 0

# texcoords
vt 0.220703 0.5
vt 0.224609 0.5
vt 0.779297 0.5
vt 0.888672 0.5
vt 0.955078 0.5
vt 0.958984 0.5
vt 0.974609 0.5
vt 0.982422 0.5
vt 0.986328 0.5
vt 0.990234 0.5
vt 0.994141 0.5

# verts
v -0.7 0 1.4
v -0.7 0 1
v -0.7 0 -0.9
v -0.7 0 -1.3
v -0.7 0.1 1.5
v -0.7 0.1 1.4
v -0.7 0.1 1
v -0.7 0.1 0.9
v -0.7 0.1 -0.8
v -0.7 0.1 -0.9
v -0.7 0.1 -1.3
v -0.7 0.1 -1.4
v -0.7 0.2 1.3
v -0.7 0.2 1.1
v -0.7 0.2 -1
v -0.7 0.2 -1.2
v -0.7 0.3 1.8
v -0.7 0.3 1.6
v -0.7 0.3 1.5
v -0.7 0.3 0.9
v -0.7 0.3 0.8
v -0.7 0.3 -0.7
v -0.7 0.3 -0.8
v -0.7 0.3 -1.4
v -0.7 0.3 -1.5
v -0.7 0.3 -1.9
v -0.7 0.4 1.3
v -0.7 0.4 1.1
v -0.7 0.4 -1
v -0.7 0.4 -1.2
v -0.7 0.5 1.8
v -0.7 0.5 1.7
v -0.7 0.5 1.5
v -0.7 0.5 1.4
v -0.7 0.5 1
v -0.7 0.5 0.9
v -0.7 0.5 -0.8
v -0.7 0.5 -0.9
v -0.7 0.5 -1.3
v -0.7 0.5 -1.4
v -0.7 0.6 1.6
v -0.7 0.6 1.5
v -0.7 0.6 1.4
v -0.7 0.6 1
v -0.7 0.6 0.9
v -0.7 0.6 0.8
v -0.7 0.6 -0.7
v -0.7 0.6 -0.8
v -0.7 0.6 -0.9
v -0.7 0.6 -1.3
v -0.7 0.6 -1.4
v -0.7 0.6 -1.5
v -0.7 0.7 1.8
v -0.7 0.7 1.7
v -0.7 0.7 1.5
v -0.7 0.7 0.9
v -0.7 0.7 -0.8
v -0.7 0.7 -1.4
v -0.7 0.7 -1.9
v -0.7 0.8 -1.8
v -0.7 0.8 -1.9
v -0.7 0.9 1.8
v -0.7 0.9 1.7
v -0.7 0.9 -1.8
v -0.7 0.9 -1.9
v -0.7 1.1 1.7
v -0.7 1.1 1.6
v -0.7 1.1 1.5
v -0.7 1.1 0.4
v -0.7 1.2 0.4
v -0.7 1.2 0.3
v -0.7 1.2 -1.8
v -0.7 1.2 -1.9
v -0.7 1.3 1.6
v -0.7 1.3 1.5
v -0.7 1.3 1.4
v -0.7 1.5 1.5
v -0.7 1.5 1.4
v -0.7 1.5 1.3
v -0.7 1.6 -1.8
v -0.7 1.6 -1.9
v -0.7 1.7 1.4
v -0.7 1.7 1.3
v -0.7 1.7 1.2
v -0.7 1.9 1.3
v -0.7 1.9 1.2
v -0.7 1.9 0.3
v -0.7 1.9 -1.7
v -0.7 1.9 -1.8
v -0.7 2 1.2
v -0.7 2 -1.7
v 0.5 0 1.4
v 0.5 0 1
v 0.5 0 -0.9
v 0.5 0 -1.3
v 0.5 0.1 1.5
v 0.5 0.1 1.4
v 0.5 0.1 1
v 0.5 0.1 0.9
v 0.5 0.1 -0.8
v 0.5 0.1 -0.9
v 0.5 0.1 -1.3
v 0.5 0.1 -1.4
v 0.5 0.2 1.3
v 0.5 0.2 1.1
v 0.5 0.2 -1
v 0.5 0.2 -1.2
v 0.5 0.3 1.5
v 0.5 0.3 1.3
v 0.5 0.3 1.1
v 0.5 0.3 0.9
v 0.5 0.3 -0.8
v 0.5 0.3 -1
v 0.5 0.3 -1.2
v 0.5 0.3 -1.4
v -0.5 0 1.4
v -0.5 0 1
v -0.5 0 -0.9
v -0.5 0 -1.3
v -0.5 0.1 1.5
v -0.5 0.1 1.4
v -0.5 0.1 1
v -0.5 0.1 0.9
v -0.5 0.1 -0.8
v -0.5 0.1 -0.9
v -0.5 0.1 -1.3
v -0.5 0.1 -1.4
v -0.5 0.2 1.3
v -0.5 0.2 1.1
v -0.5 0.2 -1
v -0.5 0.2 -1.2
v -0.5 0.3 1.5
v -0.5 0.3 1.3
v -0.5 0.3 1.1
v -0.5 0.3 0.9
v -0.5 0.3 -0.8
v -0.5 0.3 -1
v -0.5 0.3 -1.2
v -0.5 0.3 -1.4
v 0.7 0 1.4
v 0.7 0 1
v 0.7 0 -0.9
v 0.7 0 -1.3
v 0.7 0.1 1.5
v 0.7 0.1 1.4
v 0.7 0.1 1
v 0.7 0.1 0.9
v 0.7 0.1 -0.8
v 0.7 0.1 -0.9
v 0.7 0.1 -1.3
v 0.7 0.1 -1.4
v 0.7 0.2 1.3
v 0.7 0.2 1.1
v 0.7 0.2 -1
v 0.7 0.2 -1.2
v 0.7 0.3 1.8
v 0.7 0.3 1.6
v 0.7 0.3 1.5
v 0.7 0.3 0.9
v 0.7 0.3 0.8
v 0.7 0.3 -0.7
v 0.7 0.3 -0.8
v 0.7 0.3 -1.4
v 0.7 0.3 -1.5
v 0.7 0.3 -1.9
v 0.7 0.4 1.3
v 0.7 0.4 1.1
v 0.7 0.4 -1
v 0.7 0.4 -1.2
v 0.7 0.5 1.8
v 0.7 0.5 1.7
v 0.7 0.5 1.5
v 0.7 0.5 1.4
v 0.7 0.5 1
v 0.7 0.5 0.9
v 0.7 0.5 -0.8
v 0.7 0.5 -0.9
v 0.7 0.5 -1.3
v 0.7 0.5 -1.4
v 0.7 0.6 1.6
v 0.7 0.6 1.5
v 0.7 0.6 1.4
v 0.7 0.6 1
v 0.7 0.6 0.9
v 0.7 0.6 0.8
v 0.7 0.6 -0.7
v 0.7 0.6 -0.8
v 0.7 0.6 -0.9
v 0.7 0.6 -1.3
v 0.7 0.6 -1.4
v 0.7 0.6 -1.5
v 0.7 0.7 1.8
v 0.7 0.7 1.7
v 0.7 0.7 1.5
v 0.7 0.7 0.9
v 0.7 0.7 -0.8
v 0.7 0.7 -1.4
v 0.7 0.7 -1.9
v 0.7 0.8 -1.8
v 0.7 0.8 -1.9
v 0.7 0.9 1.8
v 0.7 0.9 1.7
v 0.7 0.9 -1.8
v 0.7 0.9 -1.9
v 0.7 1.1 1.7
v 0.7 1.1 1.6
v 0.7 1.1 1.5
v 0.7 1.1 0.4
v 0.7 1.2 0.4
v 0.7 1.2 0.3
v 0.7 1.2 -1.8
v 0.7 1.2 -1.9
v 0.7 1.3 1.6
v 0.7 1.3 1.5
v 0.7 1.3 1.4
v 0.7 1.5 1.5
v 0.7 1.5 1.4
v 0.7 1.5 1.3
v 0.7 1.6 -1.8
v 0.7 1.6 -1.9
v 0.7 1.7 1.4
v 0.7 1.7 1.3
v 0.7 1.7 1.2
v 0.7 1.9 1.3
v 0.7 1.9 1.2
v 0.7 1.9 0.3
v 0.7 1.9 -1.7
v 0.7 1.9 -1.8
v 0.7 2 1.2
v 0.7 2 -1.7
v -0.7 0.3 1.8
v -0.7 0.5 1.8
v -0.7 0.7 1.8
v -0.7 0.9 1.8
v -0.6 0.5 1.8
v -0.6 0.7 1.8
v -0.3 0.5 1.8
v -0.3 0.6 1.8
v -0.3 0.7 1.8
v 0.3 0.5 1.8
v 0.3 0.6 1.8
v 0.3 0.7 1.8
v 0.6 0.5 1.8
v 0.6 0.7 1.8
v 0.7 0.3 1.8
v 0.7 0.5 1.8
v 0.7 0.7 1.8
v 0.7 0.9 1.8
v -0.7 0.9 1.7
v -0.7 1.1 1.7
v 0.7 0.9 1.7
v 0.7 1.1 1.7
v -0.7 1.1 1.6
v -0.7 1.3 1.6
v -0.6 1.2 1.6
v -0.6 1.3 1.6
v -0.5 1.1 1.6
v -0.5 1.2 1.6
v 0.5 1.1 1.6
v 0.5 1.2 1.6
v 0.6 1.2 1.6
v 0.6 1.3 1.6
v 0.7 1.1 1.6
v 0.7 1.3 1.6
v -0.7 0.1 1.5
v -0.7 0.3 1.5
v -0.7 1.3 1.5
v -0.7 1.5 1.5
v -0.6 0.3 1.5
v -0.6 1.3 1.5
v -0.6 1.5 1.5
v -0.5 0.1 1.5
v -0.5 0.3 1.5
v 0.5 0.1 1.5
v 0.5 0.3 1.5
v 0.6 0.3 1.5
v 0.6 1.3 1.5
v 0.6 1.5 1.5
v 0.7 0.1 1.5
v 0.7 0.3 1.5
v 0.7 1.3 1.5
v 0.7 1.5 1.5
v -0.7 0 1.4
v -0.7 0.1 1.4
v -0.7 1.5 1.4
v -0.7 1.7 1.4
v -0.6 1.5 1.4
v -0.6 1.7 1.4
v -0.5 0 1.4
v -0.5 0.1 1.4
v 0.5 0 1.4
v 0.5 0.1 1.4
v 0.6 1.5 1.4
v 0.6 1.7 1.4
v 0.7 0 1.4
v 0.7 0.1 1.4
v 0.7 1.5 1.4
v 0.7 1.7 1.4
v -0.7 1.7 1.3
v -0.7 1.9 1.3
v -0.6 1.7 1.3
v -0.6 1.9 1.3
v 0.6 1.7 1.3
v 0.6 1.9 1.3
v 0.7 1.7 1.3
v 0.7 1.9 1.3
v -0.7 1.9 1.2
v -0.7 2 1.2
v -0.6 1.9 1.2
v 0.6 1.9 1.2
v 0.7 1.9 1.2
v 0.7 2 1.2
v -0.7 0.1 -0.8
v -0.7 0.3 -0.8
v -0.6 0.3 -0.8
v -0.5 0.1 -0.8
v -0.5 0.3 -0.8
v 0.5 0.1 -0.8
v 0.5 0.3 -0.8
v 0.6 0.3 -0.8
v 0.7 0.1 -0.8
v 0.7 0.3 -0.8
v -0.7 0 -0.9
v -0.7 0.1 -0.9
v -0.5 0 -0.9
v -0.5 0.1 -0.9
v 0.5 0 -0.9
v 0.5 0.1 -0.9
v 0.7 0 -0.9
v 0.7 0.1 -0.9
v -0.7 0 1
v -0.7 0.1 1
v -0.5 0 1
v -0.5 0.1 1
v 0.5 0 1
v 0.5 0.1 1
v 0.7 0 1
v 0.7 0.1 1
v -0.7 0.1 0.9
v -0.7 0.3 0.9
v -0.6 0.3 0.9
v -0.5 0.1 0.9
v -0.5 0.3 0.9
v 0.5 0.1 0.9
v 0.5 0.3 0.9
v 0.6 0.3 0.9
v 0.7 0.1 0.9
v 0.7 0.3 0.9
v -0.7 0 -1.3
v -0.7 0.1 -1.3
v -0.5 0 -1.3
v -0.5 0.1 -1.3
v 0.5 0 -1.3
v 0.5 0.1 -1.3
v 0.7 0 -1.3
v 0.7 0.1 -1.3
v -0.7 0.1 -1.4
v -0.7 0.3 -1.4
v -0.6 0.3 -1.4
v -0.5 0.1 -1.4
v -0.5 0.3 -1.4
v 0.5 0.1 -1.4
v 0.5 0.3 -1.4
v 0.6 0.3 -1.4
v 0.7 0.1 -1.4
v 0.7 0.3 -1.4
v -0.7 1.9 -1.7
v -0.7 2 -1.7
v 0.7 1.9 -1.7
v 0.7 2 -1.7
v -0.7 1.6 -1.8
v -0.7 1.9 -1.8
v 0.7 1.6 -1.8
v 0.7 1.9 -1.8
v -0.7 0.3 -1.9
v -0.7 0.7 -1.9
v -0.7 0.8 -1.9
v -0.7 0.9 -1.9
v -0.7 1.2 -1.9
v -0.7 1.6 -1.9
v -0.5 0.8 -1.9
v -0.5 0.9 -1.9
v -0.5 1.2 -1.9
v 0.5 0.8 -1.9
v 0.5 0.9 -1.9
v 0.5 1.2 -1.9
v 0.7 0.3 -1.9
v 0.7 0.7 -1.9
v 0.7 0.8 -1.9
v 0.7 0.9 -1.9
v 0.7 1.2 -1.9
v 0.7 1.6 -1.9
v -0.7 0 1.4
v -0.5 0 1.4
v 0.5 0 1.4
v 0.7 0 1.4
v -0.7 0 1
v -0.5 0 1
v 0.5 0 1
v 0.7 0 1
v -0.7 0 -0.9
v -0.5 0 -0.9
v 0.5 0 -0.9
v 0.7 0 -0.9
v -0.7 0 -1.3
v -0.5 0 -1.3
v 0.5 0 -1.3
v 0.7 0 -1.3
v -0.7 0.1 1.5
v -0.5 0.1 1.5
v 0.5 0.1 1.5
v 0.7 0.1 1.5
v -0.7 0.1 1.4
v -0.5 0.1 1.4
v 0.5 0.1 1.4
v 0.7 0.1 1.4
v -0.7 0.1 1
v -0.5 0.1 1
v 0.5 0.1 1
v 0.7 0.1 1
v -0.7 0.1 0.9
v -0.5 0.1 0.9
v 0.5 0.1 0.9
v 0.7 0.1 0.9
v -0.7 0.1 -0.8
v -0.5 0.1 -0.8
v 0.5 0.1 -0.8
v 0.7 0.1 -0.8
v -0.7 0.1 -0.9
v -0.5 0.1 -0.9
v 0.5 0.1 -0.9
v 0.7 0.1 -0.9
v -0.7 0.1 -1.3
v -0.5 0.1 -1.3
v 0.5 0.1 -1.3
v 0.7 0.1 -1.3
v -0.7 0.1 -1.4
v -0.5 0.1 -1.4
v 0.5 0.1 -1.4
v 0.7 0.1 -1.4
v -0.7 0.3 1.8
v 0.7 0.3 1.8
v -0.7 0.3 1.6
v -0.6 0.3 1.6
v 0.6 0.3 1.6
v 0.7 0.3 1.6
v -0.7 0.3 1.5
v -0.6 0.3 1.5
v -0.5 0.3 1.5
v 0.5 0.3 1.5
v 0.6 0.3 1.5
v 0.7 0.3 1.5
v -0.5 0.3 1.3
v 0.5 0.3 1.3
v -0.5 0.3 1.1
v 0.5 0.3 1.1
v -0.7 0.3 0.9
v -0.6 0.3 0.9
v -0.5 0.3 0.9
v 0.5 0.3 0.9
v 0.6 0.3 0.9
v 0.7 0.3 0.9
v -0.7 0.3 0.8
v -0.6 0.3 0.8
v 0.6 0.3 0.8
v 0.7 0.3 0.8
v -0.7 0.3 -0.7
v -0.6 0.3 -0.7
v 0.6 0.3 -0.7
v 0.7 0.3 -0.7
v -0.7 0.3 -0.8
v -0.6 0.3 -0.8
v -0.5 0.3 -0.8
v 0.5 0.3 -0.8
v 0.6 0.3 -0.8
v 0.7 0.3 -0.8
v -0.5 0.3 -1
v 0.5 0.3 -1
v -0.5 0.3 -1.2
v 0.5 0.3 -1.2
v -0.7 0.3 -1.4
v -0.6 0.3 -1.4
v -0.5 0.3 -1.4
v 0.5 0.3 -1.4
v 0.6 0.3 -1.4
v 0.7 0.3 -1.4
v -0.7 0.3 -1.5
v -0.6 0.3 -1.5
v 0.6 0.3 -1.5
v 0.7 0.3 -1.5
v -0.7 0.3 -1.9
v 0.7 0.3 -1.9
v -0.7 0.9 1.8
v 0.7 0.9 1.8
v -0.7 0.9 1.7
v 0.7 0.9 1.7
v -0.7 1.1 1.7
v 0.7 1.1 1.7
v -0.7 1.1 1.6
v -0.5 1.1 1.6
v 0.5 1.1 1.6
v 0.7 1.1 1.6
v -0.7 1.3 1.6
v -0.6 1.3 1.6
v 0.6 1.3 1.6
v 0.7 1.3 1.6
v -0.7 1.3 1.5
v -0.6 1.3 1.5
v 0.6 1.3 1.5
v 0.7 1.3 1.5
v -0.7 1.5 1.5
v -0.6 1.5 1.5
v 0.6 1.5 1.5
v 0.7 1.5 1.5
v -0.7 1.5 1.4
v -0.6 1.5 1.4
v 0.6 1.5 1.4
v 0.7 1.5 1.4
v -0.7 1.6 -1.8
v 0.7 1.6 -1.8
v -0.7 1.6 -1.9
v 0.7 1.6 -1.9
v -0.7 1.7 1.4
v -0.6 1.7 1.4
v 0.6 1.7 1.4
v 0.7 1.7 1.4
v -0.7 1.7 1.3
v -0.6 1.7 1.3
v 0.6 1.7 1.3
v 0.7 1.7 1.3
v -0.7 1.9 1.3
v -0.6 1.9 1.3
v 0.6 1.9 1.3
v 0.7 1.9 1.3
v -0.7 1.9 1.2
v -0.6 1.9 1.2
v 0.6 1.9 1.2
v 0.7 1.9 1.2
v -0.7 1.9 -1.7
v 0.7 1.9 -1.7
v -0.7 1.9 -1.8
v 0.7 1.9 -1.8
v -0.7 2 1.2
v 0.7 2 1.2
v -0.7 2 -1.7
v 0.7 2 -1.7

# faces
f 6/10/1 2/10/1 1/10/1
f 7/10/1 2/10/1 6/10/1
f 10/10/1 4/10/1 3/10/1
f 11/10/1 4/10/1 10/10/1
f 13/10/1 8/10/1 7/10/1
f 13/10/1 6/10/1 5/10/1
f 13/10/1 7/10/1 6/10/1
f 14/10/1 8/10/1 13/10/1
f 15/10/1 12/10/1 11/10/1
f 15/10/1 11/10/1 10/10/1
f 15/10/1 10/10/1 9/10/1
f 16/10/1 12/10/1 15/10/1
f 19/10/1 13/10/1 5/10/1
f 20/10/1 8/10/1 14/10/1
f 23/10/1 15/10/1 9/10/1
f 24/10/1 12/10/1 16/10/1
f 27/7/1 14/7/1 13/7/1
f 27/10/1 13/10/1 19/10/1
f 28/10/1 20/10/1 14/10/1
f 28/7/1 14/7/1 27/7/1
f 29/7/1 16/7/1 15/7/1
f 29/10/1 15/10/1 23/10/1
f 30/10/1 24/10/1 16/10/1
f 30/7/1 16/7/1 29/7/1
f 31/6/1 18/6/1 17/6/1
f 32/6/1 18/6/1 31/6/1
f 33/8/1 19/8/1 18/8/1
f 33/10/1 27/10/1 19/10/1
f 33/10/1 28/10/1 27/10/1
f 34/10/1 28/10/1 33/10/1
f 35/10/1 20/10/1 28/10/1
f 35/10/1 28/10/1 34/10/1
f 36/8/1 21/8/1 20/8/1
f 36/10/1 20/10/1 35/10/1
f 37/8/1 23/8/1 22/8/1
f 37/10/1 29/10/1 23/10/1
f 37/10/1 30/10/1 29/10/1
f 38/10/1 30/10/1 37/10/1
f 39/10/1 24/10/1 30/10/1
f 39/10/1 30/10/1 38/10/1
f 40/8/1 25/8/1 24/8/1
f 40/10/1 24/10/1 39/10/1
f 41/6/1 18/6/1 32/6/1
f 41/8/1 34/8/1 33/8/1
f 41/8/1 33/8/1 18/8/1
f 42/8/1 34/8/1 41/8/1
f 43/10/1 35/10/1 34/10/1
f 43/8/1 34/8/1 42/8/1
f 44/8/1 36/8/1 35/8/1
f 44/10/1 35/10/1 43/10/1
f 45/8/1 21/8/1 36/8/1
f 45/8/1 36/8/1 44/8/1
f 46/6/1 22/6/1 21/6/1
f 46/8/1 21/8/1 45/8/1
f 47/8/1 38/8/1 37/8/1
f 47/6/1 22/6/1 46/6/1
f 47/8/1 37/8/1 22/8/1
f 48/8/1 38/8/1 47/8/1
f 49/10/1 39/10/1 38/10/1
f 49/8/1 38/8/1 48/8/1
f 50/8/1 40/8/1 39/8/1
f 50/10/1 39/10/1 49/10/1
f 51/8/1 25/8/1 40/8/1
f 51/8/1 40/8/1 50/8/1
f 52/6/1 26/6/1 25/6/1
f 52/8/1 25/8/1 51/8/1
f 53/1/1 32/1/1 31/1/1
f 54/6/1 42/6/1 41/6/1
f 54/1/1 32/1/1 53/1/1
f 54/6/1 41/6/1 32/6/1
f 55/8/1 45/8/1 44/8/1
f 55/6/1 42/6/1 54/6/1
f 55/8/1 44/8/1 43/8/1
f 55/8/1 43/8/1 42/8/1
f 56/6/1 46/6/1 45/6/1
f 56/8/1 45/8/1 55/8/1
f 56/6/1 47/6/1 46/6/1
f 56/6/1 48/6/1 47/6/1
f 57/8/1 50/8/1 49/8/1
f 57/6/1 48/6/1 56/6/1
f 57/8/1 51/8/1 50/8/1
f 57/8/1 49/8/1 48/8/1
f 58/6/1 52/6/1 51/6/1
f 58/8/1 51/8/1 57/8/1
f 59/6/1 26/6/1 52/6/1
f 59/6/1 52/6/1 58/6/1
f 60/5/1 56/5/1 55/5/1
f 60/5/1 55/5/1 54/5/1
f 60/5/1 59/5/1 58/5/1
f 60/5/1 58/5/1 57/5/1
f 60/5/1 54/5/1 53/5/1
f 60/5/1 57/5/1 56/5/1
f 61/5/1 59/5/1 60/5/1
f 62/5/1 60/5/1 53/5/1
f 63/5/1 60/5/1 62/5/1
f 64/1/1 61/1/1 60/1/1
f 64/5/1 60/5/1 63/5/1
f 65/1/1 61/1/1 64/1/1
f 66/5/1 64/5/1 63/5/1
f 67/5/1 64/5/1 66/5/1
f 68/5/1 64/5/1 67/5/1
f 69/5/1 64/5/1 68/5/1
f 70/5/1 64/5/1 69/5/1
f 70/9/1 69/9/1 68/9/1
f 71/5/1 64/5/1 70/5/1
f 72/2/1 65/2/1 64/2/1
f 72/5/1 64/5/1 71/5/1
f 73/2/1 65/2/1 72/2/1
f 74/5/1 68/5/1 67/5/1
f 75/9/1 71/9/1 70/9/1
f 75/5/1 68/5/1 74/5/1
f 75/9/1 70/9/1 68/9/1
f 76/9/1 71/9/1 75/9/1
f 77/5/1 76/5/1 75/5/1
f 78/9/1 71/9/1 76/9/1
f 78/5/1 76/5/1 77/5/1
f 79/9/1 71/9/1 78/9/1
f 80/5/1 73/5/1 72/5/1
f 80/5/1 72/5/1 71/5/1
f 81/5/1 73/5/1 80/5/1
f 82/5/1 79/5/1 78/5/1
f 83/9/1 71/9/1 79/9/1
f 83/5/1 79/5/1 82/5/1
f 84/9/1 71/9/1 83/9/1
f 85/5/1 84/5/1 83/5/1
f 86/9/1 71/9/1 84/9/1
f 86/5/1 84/5/1 85/5/1
f 87/5/1 80/5/1 71/5/1
f 87/9/1 71/9/1 86/9/1
f 88/5/1 80/5/1 87/5/1
f 89/5/1 80/5/1 88/5/1
f 90/5/1 87/5/1 86/5/1
f 90/5/1 88/5/1 87/5/1
f 91/5/1 88/5/1 90/5/1
f 97/10/1 93/10/1 92/10/1
f 98/10/1 93/10/1 97/10/1
f 101/10/1 95/10/1 94/10/1
f 102/10/1 95/10/1 101/10/1
f 104/10/1 99/10/1 98/10/1
f 104/10/1 97/10/1 96/10/1
f 104/10/1 98/10/1 97/10/1
f 105/10/1 99/10/1 104/10/1
f 106/10/1 103/10/1 102/10/1
f 106/10/1 102/10/1 101/10/1
f 106/10/1 101/10/1 100/10/1
f 107/10/1 103/10/1 106/10/1
f 108/10/1 104/10/1 96/10/1
f 109/7/1 105/7/1 104/7/1
f 109/10/1 104/10/1 108/10/1
f 110/10/1 99/10/1 105/10/1
f 110/7/1 105/7/1 109/7/1
f 111/10/1 99/10/1 110/10/1
f 112/10/1 106/10/1 100/10/1
f 113/7/1 107/7/1 106/7/1
f 113/10/1 106/10/1 112/10/1
f 114/10/1 103/10/1 107/10/1
f 114/7/1 107/7/1 113/7/1
f 115/10/1 103/10/1 114/10/1
f 116/10/2 117/10/2 121/10/2
f 121/10/2 117/10/2 122/10/2
f 118/10/2 119/10/2 125/10/2
f 125/10/2 119/10/2 126/10/2
f 122/10/2 123/10/2 128/10/2
f 120/10/2 121/10/2 128/10/2
f 121/10/2 122/10/2 128/10/2
f 128/10/2 123/10/2 129/10/2
f 126/10/2 127/10/2 130/10/2
f 125/10/2 126/10/2 130/10/2
f 124/10/2 125/10/2 130/10/2
f 130/10/2 127/10/2 131/10/2
f 120/10/2 128/10/2 132/10/2
f 128/7/2 129/7/2 133/7/2
f 132/10/2 128/10/2 133/10/2
f 129/10/2 123/10/2 134/10/2
f 133/7/2 129/7/2 134/7/2
f 134/10/2 123/10/2 135/10/2
f 124/10/2 130/10/2 136/10/2
f 130/7/2 131/7/2 137/7/2
f 136/10/2 130/10/2 137/10/2
f 131/10/2 127/10/2 138/10/2
f 137/7/2 131/7/2 138/7/2
f 138/10/2 127/10/2 139/10/2
f 140/10/2 141/10/2 145/10/2
f 145/10/2 141/10/2 146/10/2
f 142/10/2 143/10/2 149/10/2
f 149/10/2 143/10/2 150/10/2
f 146/10/2 147/10/2 152/10/2
f 144/10/2 145/10/2 152/10/2
f 145/10/2 146/10/2 152/10/2
f 152/10/2 147/10/2 153/10/2
f 150/10/2 151/10/2 154/10/2
f 149/10/2 150/10/2 154/10/2
f 148/10/2 149/10/2 154/10/2
f 154/10/2 151/10/2 155/10/2
f 144/10/2 152/10/2 158/10/2
f 153/10/2 147/10/2 159/10/2
f 148/10/2 154/10/2 162/10/2
f 155/10/2 151/10/2 163/10/2
f 152/7/2 153/7/2 166/7/2
f 158/10/2 152/10/2 166/10/2
f 153/10/2 159/10/2 167/10/2
f 166/7/2 153/7/2 167/7/2
f 154/7/2 155/7/2 168/7/2
f 162/10/2 154/10/2 168/10/2
f 155/10/2 163/10/2 169/10/2
f 168/7/2 155/7/2 169/7/2
f 156/6/2 157/6/2 170/6/2
f 170/6/2 157/6/2 171/6/2
f 157/8/2 158/8/2 172/8/2
f 158/10/2 166/10/2 172/10/2
f 166/10/2 167/10/2 172/10/2
f 172/10/2 167/10/2 173/10/2
f 167/10/2 159/10/2 174/10/2
f 173/10/2 167/10/2 174/10/2
f 159/8/2 160/8/2 175/8/2
f 174/10/2 159/10/2 175/10/2
f 161/8/2 162/8/2 176/8/2
f 162/10/2 168/10/2 176/10/2
f 168/10/2 169/10/2 176/10/2
f 176/10/2 169/10/2 177/10/2
f 169/10/2 163/10/2 178/10/2
f 177/10/2 169/10/2 178/10/2
f 163/8/2 164/8/2 179/8/2
f 178/10/2 163/10/2 179/10/2
f 171/6/2 157/6/2 180/6/2
f 172/8/2 173/8/2 180/8/2
f 157/8/2 172/8/2 180/8/2
f 180/8/2 173/8/2 181/8/2
f 173/10/2 174/10/2 182/10/2
f 181/8/2 173/8/2 182/8/2
f 174/8/2 175/8/2 183/8/2
f 182/10/2 174/10/2 183/10/2
f 175/8/2 160/8/2 184/8/2
f 183/8/2 175/8/2 184/8/2
f 160/6/2 161/6/2 185/6/2
f 184/8/2 160/8/2 185/8/2
f 176/8/2 177/8/2 186/8/2
f 185/6/2 161/6/2 186/6/2
f 161/8/2 176/8/2 186/8/2
f 186/8/2 177/8/2 187/8/2
f 177/10/2 178/10/2 188/10/2
f 187/8/2 177/8/2 188/8/2
f 178/8/2 179/8/2 189/8/2
f 188/10/2 178/10/2 189/10/2
f 179/8/2 164/8/2 190/8/2
f 189/8/2 179/8/2 190/8/2
f 164/6/2 165/6/2 191/6/2
f 190/8/2 164/8/2 191/8/2
f 170/1/2 171/1/2 192/1/2
f 180/6/2 181/6/2 193/6/2
f 192/1/2 171/1/2 193/1/2
f 171/6/2 180/6/2 193/6/2
f 183/8/2 184/8/2 194/8/2
f 193/6/2 181/6/2 194/6/2
f 182/8/2 183/8/2 194/8/2
f 181/8/2 182/8/2 194/8/2
f 184/6/2 185/6/2 195/6/2
f 194/8/2 184/8/2 195/8/2
f 185/6/2 186/6/2 195/6/2
f 186/6/2 187/6/2 195/6/2
f 188/8/2 189/8/2 196/8/2
f 195/6/2 187/6/2 196/6/2
f 189/8/2 190/8/2 196/8/2
f 187/8/2 188/8/2 196/8/2
f 190/6/2 191/6/2 197/6/2
f 196/8/2 190/8/2 197/8/2
f 191/6/2 165/6/2 198/6/2
f 197/6/2 191/6/2 198/6/2
f 194/5/2 195/5/2 199/5/2
f 193/5/2 194/5/2 199/5/2
f 197/5/2 198/5/2 199/5/2
f 196/5/2 197/5/2 199/5/2
f 192/5/2 193/5/2 199/5/2
f 195/5/2 196/5/2 199/5/2
f 199/5/2 198/5/2 200/5/2
f 192/5/2 199/5/2 201/5/2
f 201/5/2 199/5/2 202/5/2
f 199/1/2 200/1/2 203/1/2
f 202/5/2 199/5/2 203/5/2
f 203/1/2 200/1/2 204/1/2
f 202/5/2 203/5/2 205/5/2
f 205/5/2 203/5/2 206/5/2
f 206/5/2 203/5/2 207/5/2
f 207/5/2 203/5/2 208/5/2
f 208/5/2 203/5/2 209/5/2
f 207/9/2 208/9/2 209/9/2
f 209/5/2 203/5/2 210/5/2
f 203/2/2 204/2/2 211/2/2
f 210/5/2 203/5/2 211/5/2
f 211/2/2 204/2/2 212/2/2
f 206/5/2 207/5/2 213/5/2
f 209/9/2 210/9/2 214/9/2
f 213/5/2 207/5/2 214/5/2
f 207/9/2 209/9/2 214/9/2
f 214/9/2 210/9/2 215/9/2
f 214/5/2 215/5/2 216/5/2
f 215/9/2 210/9/2 217/9/2
f 216/5/2 215/5/2 217/5/2
f 217/9/2 210/9/2 218/9/2
f 211/5/2 212/5/2 219/5/2
f 210/5/2 211/5/2 219/5/2
f 219/5/2 212/5/2 220/5/2
f 217/5/2 218/5/2 221/5/2
f 218/9/2 210/9/2 222/9/2
f 221/5/2 218/5/2 222/5/2
f 222/9/2 210/9/2 223/9/2
f 222/5/2 223/5/2 224/5/2
f 223/9/2 210/9/2 225/9/2
f 224/5/2 223/5/2 225/5/2
f 210/5/2 219/5/2 226/5/2
f 225/9/2 210/9/2 226/9/2
f 226/5/2 219/5/2 227/5/2
f 227/5/2 219/5/2 228/5/2
f 225/5/2 226/5/2 229/5/2
f 226/5/2 227/5/2 229/5/2
f 229/5/2 227/5/2 230/5/2
f 235/6/3 232/6/3 231/6/3
f 235/1/3 233/1/3 232/1/3
f 236/5/3 234/5/3 233/5/3
f 236/1/3 233/1/3 235/1/3
f 237/6/3 235/6/3 231/6/3
f 237/11/3 236/11/3 235/11/3
f 238/11/3 236/11/3 237/11/3
f 239/5/3 234/5/3 236/5/3
f 239/11/3 236/11/3 238/11/3
f 240/6/3 238/6/3 237/6/3
f 240/6/3 237/6/3 231/6/3
f 241/5/3 239/5/3 238/5/3
f 241/6/3 238/6/3 240/6/3
f 242/5/3 234/5/3 239/5/3
f 242/5/3 239/5/3 241/5/3
f 243/11/3 241/11/3 240/11/3
f 243/6/3 240/6/3 231/6/3
f 243/11/3 242/11/3 241/11/3
f 244/5/3 234/5/3 242/5/3
f 244/11/3 242/11/3 243/11/3
f 245/6/3 243/6/3 231/6/3
f 246/1/3 244/1/3 243/1/3
f 246/6/3 243/6/3 245/6/3
f 247/5/3 234/5/3 244/5/3
f 247/1/3 244/1/3 246/1/3
f 248/5/3 234/5/3 247/5/3
f 251/5/3 250/5/3 249/5/3
f 252/5/3 250/5/3 251/5/3
f 255/5/3 254/5/3 253/5/3
f 256/5/3 254/5/3 255/5/3
f 257/5/3 255/5/3 253/5/3
f 258/9/3 256/9/3 255/9/3
f 258/5/3 255/5/3 257/5/3
f 259/9/3 258/9/3 257/9/3
f 260/9/3 256/9/3 258/9/3
f 260/9/3 258/9/3 259/9/3
f 261/5/3 260/5/3 259/5/3
f 261/9/3 256/9/3 260/9/3
f 262/9/3 256/9/3 261/9/3
f 263/5/3 261/5/3 259/5/3
f 263/5/3 262/5/3 261/5/3
f 264/5/3 262/5/3 263/5/3
f 269/10/3 266/10/3 265/10/3
f 270/5/3 268/5/3 267/5/3
f 271/5/3 268/5/3 270/5/3
f 272/10/3 269/10/3 265/10/3
f 273/10/3 269/10/3 272/10/3
f 276/10/3 275/10/3 274/10/3
f 277/9/3 271/9/3 270/9/3
f 278/9/3 271/9/3 277/9/3
f 279/10/3 276/10/3 274/10/3
f 280/10/3 276/10/3 279/10/3
f 281/5/3 278/5/3 277/5/3
f 282/5/3 278/5/3 281/5/3
f 287/5/3 286/5/3 285/5/3
f 288/5/3 286/5/3 287/5/3
f 289/10/3 284/10/3 283/10/3
f 290/10/3 284/10/3 289/10/3
f 293/9/3 288/9/3 287/9/3
f 294/9/3 288/9/3 293/9/3
f 295/10/3 292/10/3 291/10/3
f 296/10/3 292/10/3 295/10/3
f 297/5/3 294/5/3 293/5/3
f 298/5/3 294/5/3 297/5/3
f 301/5/3 300/5/3 299/5/3
f 302/5/3 300/5/3 301/5/3
f 303/9/3 302/9/3 301/9/3
f 304/9/3 302/9/3 303/9/3
f 305/5/3 304/5/3 303/5/3
f 306/5/3 304/5/3 305/5/3
f 309/5/3 308/5/3 307/5/3
f 310/5/3 308/5/3 309/5/3
f 311/5/3 308/5/3 310/5/3
f 312/5/3 308/5/3 311/5/3
f 315/10/3 314/10/3 313/10/3
f 316/10/3 315/10/3 313/10/3
f 317/10/3 315/10/3 316/10/3
f 320/10/3 319/10/3 318/10/3
f 321/10/3 320/10/3 318/10/3
f 322/10/3 320/10/3 321/10/3
f 325/10/3 324/10/3 323/10/3
f 326/10/3 324/10/3 325/10/3
f 329/10/3 328/10/3 327/10/3
f 330/10/3 328/10/3 329/10/3
f 331/10/4 332/10/4 333/10/4
f 333/10/4 332/10/4 334/10/4
f 335/10/4 336/10/4 337/10/4
f 337/10/4 336/10/4 338/10/4
f 339/10/4 340/10/4 341/10/4
f 339/10/4 341/10/4 342/10/4
f 342/10/4 341/10/4 343/10/4
f 344/10/4 345/10/4 346/10/4
f 344/10/4 346/10/4 347/10/4
f 347/10/4 346/10/4 348/10/4
f 349/10/4 350/10/4 351/10/4
f 351/10/4 350/10/4 352/10/4
f 353/10/4 354/10/4 355/10/4
f 355/10/4 354/10/4 356/10/4
f 357/10/4 358/10/4 359/10/4
f 357/10/4 359/10/4 360/10/4
f 360/10/4 359/10/4 361/10/4
f 362/10/4 363/10/4 364/10/4
f 362/10/4 364/10/4 365/10/4
f 365/10/4 364/10/4 366/10/4
f 367/5/4 368/5/4 369/5/4
f 369/5/4 368/5/4 370/5/4
f 371/5/4 372/5/4 373/5/4
f 373/5/4 372/5/4 374/5/4
f 376/5/4 377/5/4 381/5/4
f 377/1/4 378/1/4 381/1/4
f 378/2/4 379/2/4 382/2/4
f 381/1/4 378/1/4 382/1/4
f 379/5/4 380/5/4 383/5/4
f 382/2/4 379/2/4 383/2/4
f 381/5/4 382/5/4 384/5/4
f 376/5/4 381/5/4 384/5/4
f 382/5/4 383/5/4 384/5/4
f 384/5/4 383/5/4 385/5/4
f 383/5/4 380/5/4 386/5/4
f 385/5/4 383/5/4 386/5/4
f 375/6/4 376/6/4 387/6/4
f 376/5/4 384/5/4 388/5/4
f 387/6/4 376/6/4 388/6/4
f 384/1/4 385/1/4 389/1/4
f 388/5/4 384/5/4 389/5/4
f 385/2/4 386/2/4 390/2/4
f 389/1/4 385/1/4 390/1/4
f 386/5/4 380/5/4 391/5/4
f 390/2/4 386/2/4 391/2/4
f 391/5/4 380/5/4 392/5/4
f 397/10/5 394/10/5 393/10/5
f 398/10/5 394/10/5 397/10/5
f 399/10/5 396/10/5 395/10/5
f 400/10/5 396/10/5 399/10/5
f 405/10/5 402/10/5 401/10/5
f 406/10/5 402/10/5 405/10/5
f 407/10/5 404/10/5 403/10/5
f 408/10/5 404/10/5 407/10/5
f 413/10/5 410/10/5 409/10/5
f 414/10/5 410/10/5 413/10/5
f 415/10/5 412/10/5 411/10/5
f 416/10/5 412/10/5 415/10/5
f 421/10/5 418/10/5 417/10/5
f 422/10/5 418/10/5 421/10/5
f 423/10/5 420/10/5 419/10/5
f 424/10/5 420/10/5 423/10/5
f 429/10/5 426/10/5 425/10/5
f 430/10/5 426/10/5 429/10/5
f 431/10/5 428/10/5 427/10/5
f 432/10/5 428/10/5 431/10/5
f 437/10/5 434/10/5 433/10/5
f 438/10/5 434/10/5 437/10/5
f 439/10/5 436/10/5 435/10/5
f 440/10/5 436/10/5 439/10/5
f 443/6/5 442/6/5 441/6/5
f 444/6/5 442/6/5 443/6/5
f 445/6/5 442/6/5 444/6/5
f 446/6/5 442/6/5 445/6/5
f 447/8/5 444/8/5 443/8/5
f 448/6/5 445/6/5 444/6/5
f 448/8/5 444/8/5 447/8/5
f 449/6/5 445/6/5 448/6/5
f 450/6/5 445/6/5 449/6/5
f 451/8/5 446/8/5 445/8/5
f 451/6/5 445/6/5 450/6/5
f 452/8/5 446/8/5 451/8/5
f 453/6/5 450/6/5 449/6/5
f 454/6/5 450/6/5 453/6/5
f 455/6/5 454/6/5 453/6/5
f 456/6/5 454/6/5 455/6/5
f 459/6/5 456/6/5 455/6/5
f 460/6/5 456/6/5 459/6/5
f 463/8/5 458/8/5 457/8/5
f 464/6/5 460/6/5 459/6/5
f 464/8/5 458/8/5 463/8/5
f 464/6/5 459/6/5 458/6/5
f 464/6/5 461/6/5 460/6/5
f 465/8/5 462/8/5 461/8/5
f 465/6/5 461/6/5 464/6/5
f 466/8/5 462/8/5 465/8/5
f 467/6/5 464/6/5 463/6/5
f 467/6/5 465/6/5 464/6/5
f 467/6/5 466/6/5 465/6/5
f 468/6/5 466/6/5 467/6/5
f 469/6/5 466/6/5 468/6/5
f 470/6/5 466/6/5 469/6/5
f 471/8/5 468/8/5 467/8/5
f 472/6/5 469/6/5 468/6/5
f 472/8/5 468/8/5 471/8/5
f 473/6/5 469/6/5 472/6/5
f 474/6/5 469/6/5 473/6/5
f 475/8/5 470/8/5 469/8/5
f 475/6/5 469/6/5 474/6/5
f 476/8/5 470/8/5 475/8/5
f 477/6/5 474/6/5 473/6/5
f 478/6/5 474/6/5 477/6/5
f 479/6/5 478/6/5 477/6/5
f 480/6/5 478/6/5 479/6/5
f 483/6/5 480/6/5 479/6/5
f 484/6/5 480/6/5 483/6/5
f 487/8/5 482/8/5 481/8/5
f 488/6/5 484/6/5 483/6/5
f 488/8/5 482/8/5 487/8/5
f 488/6/5 483/6/5 482/6/5
f 488/6/5 485/6/5 484/6/5
f 489/8/5 486/8/5 485/8/5
f 489/6/5 485/6/5 488/6/5
f 490/8/5 486/8/5 489/8/5
f 491/6/5 488/6/5 487/6/5
f 491/6/5 489/6/5 488/6/5
f 491/6/5 490/6/5 489/6/5
f 492/6/5 490/6/5 491/6/5
f 493/5/6 494/5/6 495/5/6
f 495/5/6 494/5/6 496/5/6
f 497/5/6 498/5/6 499/5/6
f 499/5/6 498/5/6 500/5/6
f 500/5/6 498/5/6 501/5/6
f 501/5/6 498/5/6 502/5/6
f 503/5/6 504/5/6 507/5/6
f 504/9/6 505/9/6 508/9/6
f 507/5/6 504/5/6 508/5/6
f 505/5/6 506/5/6 509/5/6
f 508/9/6 505/9/6 509/9/6
f 509/5/6 506/5/6 510/5/6
f 511/5/6 512/5/6 515/5/6
f 512/9/6 513/9/6 516/9/6
f 515/5/6 512/5/6 516/5/6
f 513/5/6 514/5/6 517/5/6
f 516/9/6 513/9/6 517/9/6
f 517/5/6 514/5/6 518/5/6
f 519/5/6 520/5/6 521/5/6
f 521/5/6 520/5/6 522/5/6
f 523/5/6 524/5/6 527/5/6
f 524/9/6 525/9/6 528/9/6
f 527/5/6 524/5/6 528/5/6
f 525/5/6 526/5/6 529/5/6
f 528/9/6 525/9/6 529/9/6
f 529/5/6 526/5/6 530/5/6
f 531/5/6 532/5/6 535/5/6
f 532/9/6 533/9/6 536/9/6
f 535/5/6 532/5/6 536/5/6
f 533/5/6 534/5/6 537/5/6
f 536/9/6 533/9/6 537/9/6
f 537/5/6 534/5/6 538/5/6
f 539/5/6 540/5/6 541/5/6
f 541/5/6 540/5/6 542/5/6
f 543/5/6 544/5/6 545/5/6
f 545/5/6 544/5/6 546/5/6
